<?xml version="1.0" encoding="UTF-8"?>
<svg version="1.1" xmlns="http://www.w3.org/2000/svg" width="143" height="58">
<path d="M0 0 C2.125 0.9375 2.125 0.9375 4 2 C4 2.99 4 3.98 4 5 C6.475 5.99 6.475 5.99 9 7 C9 7.99 9 8.98 9 10 C7.68 9.67 6.36 9.34 5 9 C5 9.66 5 10.32 5 11 C7.64 10.67 10.28 10.34 13 10 C13 9.34 13 8.68 13 8 C12.01 7.67 11.02 7.34 10 7 C10.33 6.34 10.66 5.68 11 5 C11.9590625 5.2165625 11.9590625 5.2165625 12.9375 5.4375 C16.93844788 6.17236798 20.95504896 6.58581111 25 7 C25 7.99 25 8.98 25 10 C22.03 11.65 19.06 13.3 16 15 C16 15.33 16 15.66 16 16 C17.06927734 16.22042969 17.06927734 16.22042969 18.16015625 16.4453125 C24.49984955 17.92997823 30.0712903 19.49488013 34 25 C35.20657006 28.4219118 35.52750568 31.56034908 34.25 35.046875 C32.74978308 37.39096394 31.24296867 38.57175656 28.9375 40.125 C28.22464844 40.62257812 27.51179688 41.12015625 26.77734375 41.6328125 C19.9297808 45.00362408 12.65937465 45.28643936 5.15234375 45.1953125 C3.80638878 45.19106766 3.80638878 45.19106766 2.4332428 45.18673706 C-0.39881414 45.17564979 -3.23054061 45.15056747 -6.0625 45.125 C-7.99674019 45.11495537 -9.93098539 45.10583213 -11.86523438 45.09765625 C-16.5769479 45.07574814 -21.28841816 45.04129901 -26 45 C-25.67 43.68 -25.34 42.36 -25 41 C-25.825 40.505 -26.65 40.01 -27.5 39.5 C-30.15220735 36.84779265 -30.39544037 36.50274774 -30.5 33 C-30.31844584 30.43435308 -29.96731382 28.92917994 -28.875 26.5625 C-26.36180747 24.46817289 -24.20877528 24.28522447 -21 24 C-21.10613836 21.54775306 -21.10613836 21.54775306 -22 19 C-24.47636012 17.62533375 -24.47636012 17.62533375 -27 17 C-26.67 16.34 -26.34 15.68 -26 15 C-23.93359375 14.5859375 -23.93359375 14.5859375 -21.4375 14.375 C-20.61121094 14.30023438 -19.78492188 14.22546875 -18.93359375 14.1484375 C-17.97646484 14.07496094 -17.97646484 14.07496094 -17 14 C-17.5775 13.66226562 -18.155 13.32453125 -18.75 12.9765625 C-19.4925 12.53054687 -20.235 12.08453125 -21 11.625 C-21.7425 11.18414062 -22.485 10.74328125 -23.25 10.2890625 C-23.8275 9.86367187 -24.405 9.43828125 -25 9 C-25 8.34 -25 7.68 -25 7 C-21.7 7 -18.4 7 -15 7 C-15 6.34 -15 5.68 -15 5 C-13.1875 4.375 -13.1875 4.375 -11 4 C-10.01 4.66 -9.02 5.32 -8 6 C-5.33333333 5.41666667 -5.33333333 5.41666667 -3 4 C-2.67 3.01 -2.34 2.02 -2 1 C-1.34 0.67 -0.68 0.34 0 0 Z M-10 7 C-10.99 7.495 -10.99 7.495 -12 8 C-12 8.66 -12 9.32 -12 10 C-12.99 10.495 -12.99 10.495 -14 11 C-11.03 11 -8.06 11 -5 11 C-4.67 10.34 -4.34 9.68 -4 9 C-5.32 9 -6.64 9 -8 9 C-8.66 8.34 -9.32 7.68 -10 7 Z M-11 18 C-11 19.32 -11 20.64 -11 22 C-9.1858073 21.71905418 -7.37364999 21.42493567 -5.5625 21.125 C-4.55316406 20.96257813 -3.54382813 20.80015625 -2.50390625 20.6328125 C-1.67761719 20.42398437 -0.85132813 20.21515625 0 20 C0.33 19.34 0.66 18.68 1 18 C-2.96 18 -6.92 18 -11 18 Z M16 21 C16 23.31 16 25.62 16 28 C16.66 28 17.32 28 18 28 C16.72779379 31.81661862 15.37015857 32.84824801 12 35 C8.66796875 35.390625 8.66796875 35.390625 5.1875 35.25 C4.02605469 35.21390625 2.86460938 35.1778125 1.66796875 35.140625 C0.78753906 35.09421875 -0.09289062 35.0478125 -1 35 C-1 35.99 -1 36.98 -1 38 C5.65308391 40.26487963 11.73291915 41.24743087 18.4375 38.6875 C21.21821686 37.09498436 21.21821686 37.09498436 23 34 C23.7171698 27.99051796 23.7171698 27.99051796 20.625 23 C18.28487188 20.79798559 18.28487188 20.79798559 16 21 Z M-20 36 C-19.67 37.32 -19.34 38.64 -19 40 C-18.34 39.67 -17.68 39.34 -17 39 C-17.99 38.01 -18.98 37.02 -20 36 Z " fill="#6A3412" transform="translate(70,5)"/>
<path d="M0 0 C2.125 0.9375 2.125 0.9375 4 2 C4 2.99 4 3.98 4 5 C6.475 5.99 6.475 5.99 9 7 C9 7.99 9 8.98 9 10 C7.68 9.67 6.36 9.34 5 9 C5.185625 9.969375 5.37125 10.93875 5.5625 11.9375 C5.706875 12.948125 5.85125 13.95875 6 15 C5 16 5 16 1.9375 16.0625 C0.968125 16.041875 -0.00125 16.02125 -1 16 C-1 16.66 -1 17.32 -1 18 C-4.3 18 -7.6 18 -11 18 C-11 19.32 -11 20.64 -11 22 C-9.02 21.67 -7.04 21.34 -5 21 C-5.33 21.66 -5.66 22.32 -6 23 C-6.66 23 -7.32 23 -8 23 C-8 23.66 -8 24.32 -8 25 C-6.35 24.67 -4.7 24.34 -3 24 C-4.1875 26.4375 -4.1875 26.4375 -6 29 C-8.6875 29.8125 -8.6875 29.8125 -11 30 C-11.33 31.98 -11.66 33.96 -12 36 C-12.99 36 -13.98 36 -15 36 C-15 34.68 -15 33.36 -15 32 C-16.32 32 -17.64 32 -19 32 C-18.67 31.01 -18.34 30.02 -18 29 C-18.99 28.67 -19.98 28.34 -21 28 C-21 27.34 -21 26.68 -21 26 C-15.375 23 -15.375 23 -12 23 C-12 22.34 -12 21.68 -12 21 C-14.64 21 -17.28 21 -20 21 C-20 20.34 -20 19.68 -20 19 C-22.31 18.34 -24.62 17.68 -27 17 C-26.67 16.34 -26.34 15.68 -26 15 C-23.93359375 14.5859375 -23.93359375 14.5859375 -21.4375 14.375 C-20.19806641 14.26285156 -20.19806641 14.26285156 -18.93359375 14.1484375 C-17.97646484 14.07496094 -17.97646484 14.07496094 -17 14 C-17.5775 13.66226562 -18.155 13.32453125 -18.75 12.9765625 C-19.4925 12.53054687 -20.235 12.08453125 -21 11.625 C-21.7425 11.18414062 -22.485 10.74328125 -23.25 10.2890625 C-23.8275 9.86367187 -24.405 9.43828125 -25 9 C-25 8.34 -25 7.68 -25 7 C-21.7 7 -18.4 7 -15 7 C-15 6.34 -15 5.68 -15 5 C-13.1875 4.375 -13.1875 4.375 -11 4 C-10.01 4.66 -9.02 5.32 -8 6 C-5.33333333 5.41666667 -5.33333333 5.41666667 -3 4 C-2.67 3.01 -2.34 2.02 -2 1 C-1.34 0.67 -0.68 0.34 0 0 Z M-10 7 C-10.99 7.495 -10.99 7.495 -12 8 C-12 8.66 -12 9.32 -12 10 C-12.99 10.495 -12.99 10.495 -14 11 C-11.03 11 -8.06 11 -5 11 C-4.67 10.34 -4.34 9.68 -4 9 C-5.32 9 -6.64 9 -8 9 C-8.66 8.34 -9.32 7.68 -10 7 Z " fill="#B57C3A" transform="translate(70,5)"/>
<path d="M0 0 C0.33 0.66 0.66 1.32 1 2 C3.64 2 6.28 2 9 2 C9 2.66 9 3.32 9 4 C4.545 5.485 4.545 5.485 0 7 C0 7.66 0 8.32 0 9 C1.65 9 3.3 9 5 9 C4.01 10.32 3.02 11.64 2 13 C3.32 13 4.64 13 6 13 C6 14.32 6 15.64 6 17 C6.99 17 7.98 17 9 17 C9.061875 16.05125 9.12375 15.1025 9.1875 14.125 C9.455625 13.09375 9.72375 12.0625 10 11 C12.5 9.8125 12.5 9.8125 15 9 C15.33 8.01 15.66 7.02 16 6 C15.01 6 14.02 6 13 6 C13 5.34 13 4.68 13 4 C17.38461538 1 17.38461538 1 20 1 C20 1.99 20 2.98 20 4 C21.32 3.67 22.64 3.34 24 3 C24 3.66 24 4.32 24 5 C24.99 5 25.98 5 27 5 C27 5.66 27 6.32 27 7 C25.89591797 7.34611328 25.89591797 7.34611328 24.76953125 7.69921875 C18.9546169 9.64264455 14.8791944 11.18444833 11 16 C12.32 16 13.64 16 15 16 C15 16.66 15 17.32 15 18 C15.57234375 17.80535156 16.1446875 17.61070313 16.734375 17.41015625 C19.44641994 16.9191826 20.72995052 17.38747938 23.25 18.4375 C24.30960938 18.86869141 24.30960938 18.86869141 25.390625 19.30859375 C25.92171875 19.53675781 26.4528125 19.76492187 27 20 C27 20.33 27 20.66 27 21 C25.02 21 23.04 21 21 21 C21 21.66 21 22.32 21 23 C20.04287109 23.07347656 20.04287109 23.07347656 19.06640625 23.1484375 C18.24011719 23.22320312 17.41382812 23.29796875 16.5625 23.375 C15.73878906 23.44460937 14.91507813 23.51421875 14.06640625 23.5859375 C13.38449219 23.72257812 12.70257813 23.85921875 12 24 C11.67 24.66 11.34 25.32 11 26 C5.72 26 0.44 26 -5 26 C-4.67 24.68 -4.34 23.36 -4 22 C-4.825 21.505 -5.65 21.01 -6.5 20.5 C-9.15220735 17.84779265 -9.39544037 17.50274774 -9.5 14 C-9.31844584 11.43435308 -8.96731382 9.92917994 -7.875 7.5625 C-5.36180747 5.46817289 -3.20877528 5.28522447 0 5 C0 3.35 0 1.7 0 0 Z M1 17 C1.33 18.32 1.66 19.64 2 21 C2.66 20.67 3.32 20.34 4 20 C3.01 19.01 2.02 18.02 1 17 Z " fill="#A4601A" transform="translate(49,24)"/>
<path d="M0 0 C1.74991334 -0.02715383 3.49994945 -0.04646551 5.25 -0.0625 C6.71179687 -0.07990234 6.71179687 -0.07990234 8.203125 -0.09765625 C10.65758678 -0.01195577 12.66168914 0.29293934 15 1 C15 2.98 15 4.96 15 7 C16.98 6.67 18.96 6.34 21 6 C20.67 6.66 20.34 7.32 20 8 C19.34 8 18.68 8 18 8 C18 8.66 18 9.32 18 10 C19.65 9.67 21.3 9.34 23 9 C21.8125 11.4375 21.8125 11.4375 20 14 C17.3125 14.8125 17.3125 14.8125 15 15 C14.67 16.98 14.34 18.96 14 21 C13.01 21 12.02 21 11 21 C11 19.68 11 18.36 11 17 C9.68 17 8.36 17 7 17 C7.33 16.01 7.66 15.02 8 14 C7.01 13.67 6.02 13.34 5 13 C5 12.34 5 11.68 5 11 C10.625 8 10.625 8 14 8 C14 7.34 14 6.68 14 6 C11.36 6 8.72 6 6 6 C6 5.34 6 4.68 6 4 C3.69 3.34 1.38 2.68 -1 2 C-0.67 1.34 -0.34 0.68 0 0 Z " fill="#BC7728" transform="translate(44,20)"/>
<path d="M0 0 C-1.10880778 3.32642335 -2.23416088 4.27964664 -5.16235352 6.09057617 C-12.56540113 9.75423399 -21.02367734 9.24560553 -29.0625 9.125 C-30.21427734 9.11597656 -31.36605469 9.10695313 -32.55273438 9.09765625 C-35.36871193 9.07428714 -38.18424158 9.04152565 -41 9 C-40.67 8.01 -40.34 7.02 -40 6 C-33.25 4.875 -33.25 4.875 -31 6 C-31 5.34 -31 4.68 -31 4 C-30.03320312 3.96261719 -29.06640625 3.92523438 -28.0703125 3.88671875 C-21.01251615 3.53033497 -14.82707321 2.94710281 -8.09765625 0.6328125 C-5.35660185 -0.19409777 -2.84013922 -0.22422152 0 0 Z " fill="#BD884B" transform="translate(101,41)"/>
<path d="M0 0 C0 2.31 0 4.62 0 7 C-1.65 7 -3.3 7 -5 7 C-5 7.66 -5 8.32 -5 9 C-9.1196377 10.29243536 -12.66831683 11.26252625 -17 11 C-17.33 12.32 -17.66 13.64 -18 15 C-18.99 15 -19.98 15 -21 15 C-21 14.34 -21 13.68 -21 13 C-22.32 13 -23.64 13 -25 13 C-23.54322426 9.16982558 -21.76882213 8.00162963 -18.125 6.25 C-16.82949219 5.60804687 -16.82949219 5.60804687 -15.5078125 4.953125 C-13 4 -13 4 -9 4 C-9 3.34 -9 2.68 -9 2 C-5.86501708 0.14223235 -3.62528568 -0.20140476 0 0 Z " fill="#EED7A4" transform="translate(85,27)"/>
<path d="M0 0 C0.33 0.99 0.66 1.98 1 3 C0.67 3.66 0.34 4.32 0 5 C2.97 5.33 5.94 5.66 9 6 C9 5.34 9 4.68 9 4 C14.65735415 2.44422761 17.79666866 3.75718477 23 6 C23 6.33 23 6.66 23 7 C21.02 7 19.04 7 17 7 C17 7.66 17 8.32 17 9 C16.04287109 9.07347656 16.04287109 9.07347656 15.06640625 9.1484375 C13.82697266 9.26058594 13.82697266 9.26058594 12.5625 9.375 C11.73878906 9.44460937 10.91507813 9.51421875 10.06640625 9.5859375 C9.38449219 9.72257812 8.70257813 9.85921875 8 10 C7.67 10.66 7.34 11.32 7 12 C1.72 12 -3.56 12 -9 12 C-8.67 11.01 -8.34 10.02 -8 9 C-4.4375 7.3125 -4.4375 7.3125 -1 6 C-1.33 5.01 -1.66 4.02 -2 3 C-2.66 3 -3.32 3 -4 3 C-4 2.34 -4 1.68 -4 1 C-2.68 0.67 -1.36 0.34 0 0 Z " fill="#7A4219" transform="translate(53,38)"/>
<path d="M0 0 C2.125 0.9375 2.125 0.9375 4 2 C3.67 2.99 3.34 3.98 3 5 C2.93197033 6.72795352 2.91504355 8.45835365 2.9375 10.1875 C2.95103516 11.53908203 2.95103516 11.53908203 2.96484375 12.91796875 C2.97644531 13.60503906 2.98804687 14.29210938 3 15 C0.36 15 -2.28 15 -5 15 C-4.49396008 12.83125748 -4.00016187 11.00032373 -3 9 C-4.65 9.33 -6.3 9.66 -8 10 C-8 8.68 -8 7.36 -8 6 C-7.195625 5.731875 -6.39125 5.46375 -5.5625 5.1875 C-4.716875 4.795625 -3.87125 4.40375 -3 4 C-2.67 3.01 -2.34 2.02 -2 1 C-1.34 0.67 -0.68 0.34 0 0 Z " fill="#EACA91" transform="translate(70,5)"/>
<path d="M0 0 C2.67857172 0.36196915 4.60980914 0.73987276 6.875 2.25 C8 4 8 4 7.6875 6.6875 C7.460625 7.450625 7.23375 8.21375 7 9 C7.66 9 8.32 9 9 9 C8.6850374 11.93965096 8.01428279 12.98550403 5.90625 15.125 C2.23925644 17.4908023 0.00995191 17.41158699 -4.3125 17.25 C-5.56675781 17.21390625 -6.82101563 17.1778125 -8.11328125 17.140625 C-9.06589844 17.09421875 -10.01851563 17.0478125 -11 17 C-11 16.01 -11 15.02 -11 14 C-9.7625 13.67 -8.525 13.34 -7.25 13 C-6.20585938 12.7215625 -6.20585938 12.7215625 -5.140625 12.4375 C-3 12 -3 12 1 12 C1 11.34 1 10.68 1 10 C2.65 10 4.3 10 6 10 C6 7.69 6 5.38 6 3 C4.02 3.33 2.04 3.66 0 4 C0 2.68 0 1.36 0 0 Z " fill="#C17212" transform="translate(79,24)"/>
<path d="M0 0 C0.99 0 1.98 0 3 0 C4.09658936 3.28976808 3.79953138 4.71303767 3 8 C4.65 8 6.3 8 8 8 C8 6.35 8 4.7 8 3 C9.32 3 10.64 3 12 3 C12.33 2.34 12.66 1.68 13 1 C14.42857143 9.57142857 14.42857143 9.57142857 12 13 C10.1746875 12.9690625 10.1746875 12.9690625 8.3125 12.9375 C5.08022678 12.93175884 2.15065259 13.21233685 -1 14 C-0.505 13.2575 -0.505 13.2575 0 12.5 C1.45420788 8.8644803 1.18926011 5.91137561 1 2 C0.67 1.34 0.34 0.68 0 0 Z " fill="#8C4B0F" transform="translate(91,29)"/>
<path d="M0 0 C0 0.66 0 1.32 0 2 C1.45833358 3.62514468 1.45833358 3.62514468 3 5 C1.68 5.33 0.36 5.66 -1 6 C-1.33 7.98 -1.66 9.96 -2 12 C-2.99 12 -3.98 12 -5 12 C-5 10.68 -5 9.36 -5 8 C-6.32 8 -7.64 8 -9 8 C-8.67 7.01 -8.34 6.02 -8 5 C-8.99 4.67 -9.98 4.34 -11 4 C-11 3.34 -11 2.68 -11 2 C-7.12315913 0.80712589 -4.08378077 0 0 0 Z " fill="#DAB076" transform="translate(60,29)"/>
<path d="M0 0 C-0.33 0.99 -0.66 1.98 -1 3 C-8.57730508 6.51390293 -16.83244797 6.35059444 -25 6 C-24.67 5.34 -24.34 4.68 -24 4 C-21.7421875 3.4375 -21.7421875 3.4375 -18.875 3 C-15.52455641 2.45387336 -12.45378561 1.83882198 -9.1875 0.875 C-5.9722454 -0.00761891 -3.31580689 -0.16174668 0 0 Z " fill="#D9A968" transform="translate(101,41)"/>
<path d="M0 0 C0 0.99 0 1.98 0 3 C1.32 2.67 2.64 2.34 4 2 C4 2.66 4 3.32 4 4 C4.99 4 5.98 4 7 4 C7 4.66 7 5.32 7 6 C-4.52164009 10.22323462 -4.52164009 10.22323462 -10 12 C-10 11.34 -10 10.68 -10 10 C-9.195625 9.731875 -8.39125 9.46375 -7.5625 9.1875 C-6.716875 8.795625 -5.87125 8.40375 -5 8 C-4.67 7.01 -4.34 6.02 -4 5 C-4.99 5 -5.98 5 -7 5 C-7 4.34 -7 3.68 -7 3 C-2.61538462 0 -2.61538462 0 0 0 Z " fill="#7B3F13" transform="translate(69,25)"/>
<path d="M0 0 C0 0.66 0 1.32 0 2 C-4.1196377 3.29243536 -7.66831683 4.26252625 -12 4 C-12.33 5.32 -12.66 6.64 -13 8 C-13.99 8 -14.98 8 -16 8 C-16 7.34 -16 6.68 -16 6 C-17.32 6 -18.64 6 -20 6 C-19.359375 4.078125 -19.359375 4.078125 -18 2 C-15.390625 1.171875 -15.390625 1.171875 -12.25 0.75 C-10.71085937 0.52570312 -10.71085937 0.52570312 -9.140625 0.296875 C-6.07165186 0.00677306 -3.08051234 -0.05533855 0 0 Z " fill="#EEB96E" transform="translate(80,34)"/>
<path d="M0 0 C7.0848329 0.66838046 7.0848329 0.66838046 10 4 C12.10332891 4.71447643 12.10332891 4.71447643 14 5 C14.33 4.34 14.66 3.68 15 3 C15 3.99 15 4.98 15 6 C13.68 6 12.36 6 11 6 C11 7.65 11 9.3 11 11 C9.35 11 7.7 11 6 11 C6 8.36 6 5.72 6 3 C5.38125 2.87625 4.7625 2.7525 4.125 2.625 C2 2 2 2 0 0 Z " fill="#A7611B" transform="translate(88,26)"/>
<path d="M0 0 C0 0.33 0 0.66 0 1 C-1.98 1 -3.96 1 -6 1 C-6 1.66 -6 2.32 -6 3 C-6.680625 2.835 -7.36125 2.67 -8.0625 2.5 C-11.08937206 1.88289311 -11.08937206 1.88289311 -14.5625 2.125 C-18.23272495 1.99153727 -19.40578643 1.49044503 -22 -1 C-19.36 -0.67 -16.72 -0.34 -14 0 C-14 -0.66 -14 -1.32 -14 -2 C-8.87160006 -3.81975482 -4.82315618 -1.8599099 0 0 Z " fill="#783F12" transform="translate(76,44)"/>
<path d="M0 0 C1.74991334 -0.02715383 3.49994945 -0.04646551 5.25 -0.0625 C6.71179687 -0.07990234 6.71179687 -0.07990234 8.203125 -0.09765625 C10.65758678 -0.01195577 12.66168914 0.29293934 15 1 C14.67 2.32 14.34 3.64 14 5 C12.68 5 11.36 5 10 5 C10 4.34 10 3.68 10 3 C6.7 3 3.4 3 0 3 C0 2.01 0 1.02 0 0 Z " fill="#D8AA6D" transform="translate(44,20)"/>
<path d="M0 0 C2.64 0 5.28 0 8 0 C8.66 1.98 9.32 3.96 10 6 C6.67179946 6.22692276 4.58198664 6.32162419 1.625 4.6875 C0 3 0 3 0 0 Z " fill="#D5A25D" transform="translate(41,40)"/>
<path d="M0 0 C0.33 0.66 0.66 1.32 1 2 C3.64 2 6.28 2 9 2 C9 2.66 9 3.32 9 4 C-1.37357631 8.59225513 -1.37357631 8.59225513 -7 8 C-6.67 7.34 -6.34 6.68 -6 6 C-2.9375 5.375 -2.9375 5.375 0 5 C0 3.35 0 1.7 0 0 Z " fill="#683212" transform="translate(49,24)"/>
<path d="M0 0 C0.66 0 1.32 0 2 0 C1.69461464 2.85026332 0.95551924 4.05165508 -0.9375 6.25 C-5.27791135 8.73023506 -9.11230586 8.34166406 -14 8 C-14.33 7.34 -14.66 6.68 -15 6 C-13.0636296 5.49564306 -11.12585854 4.99666126 -9.1875 4.5 C-8.10855469 4.2215625 -7.02960938 3.943125 -5.91796875 3.65625 C-3 3 -3 3 0 3 C0 2.01 0 1.02 0 0 Z " fill="#774117" transform="translate(86,33)"/>
<path d="M0 0 C1.5843317 0.08768248 3.16753567 0.19587329 4.75 0.3125 C6.07257813 0.39951172 6.07257813 0.39951172 7.421875 0.48828125 C10.37584398 1.07459934 11.86001419 1.89501396 14 4 C14 4.99 14 5.98 14 7 C10.08740311 6.45658377 8.11226824 5.33420118 5 3 C2.35065178 2.28566879 2.35065178 2.28566879 0 2 C0 1.34 0 0.68 0 0 Z " fill="#EBC98F" transform="translate(88,24)"/>
<path d="M0 0 C5.28 0 10.56 0 16 0 C15.67 0.99 15.34 1.98 15 3 C9.72 3 4.44 3 -1 3 C-0.67 2.01 -0.34 1.02 0 0 Z " fill="#87420C" transform="translate(45,47)"/>
<path d="M0 0 C0 0.66 0 1.32 0 2 C1.45833358 3.62514468 1.45833358 3.62514468 3 5 C2.01 5.495 2.01 5.495 1 6 C1 5.34 1 4.68 1 4 C-0.051875 4.185625 -1.10375 4.37125 -2.1875 4.5625 C-5.57119882 4.95079331 -7.76425888 4.88247485 -11 4 C-11 3.34 -11 2.68 -11 2 C-7.12315913 0.80712589 -4.08378077 0 0 0 Z " fill="#CC995A" transform="translate(60,29)"/>
<path d="M0 0 C1.4540625 0.0309375 1.4540625 0.0309375 2.9375 0.0625 C3.5625 1.9375 3.5625 1.9375 3.9375 4.0625 C3.2775 4.7225 2.6175 5.3825 1.9375 6.0625 C0.9475 6.0625 -0.0425 6.0625 -1.0625 6.0625 C-1.0625 5.4025 -1.0625 4.7425 -1.0625 4.0625 C-2.3825 4.3925 -3.7025 4.7225 -5.0625 5.0625 C-3.9375 0.08035714 -3.9375 0.08035714 0 0 Z " fill="#C19357" transform="translate(74.0625,22.9375)"/>
<path d="M0 0 C2.125 0.9375 2.125 0.9375 4 2 C3.67 2.66 3.34 3.32 3 4 C2.34 4 1.68 4 1 4 C1 4.66 1 5.32 1 6 C0.01 6.33 -0.98 6.66 -2 7 C-2 6.01 -2 5.02 -2 4 C-4.31 4 -6.62 4 -9 4 C-9.33 4.66 -9.66 5.32 -10 6 C-10.66 5.67 -11.32 5.34 -12 5 C-12 4.34 -12 3.68 -12 3 C-8.7 3 -5.4 3 -2 3 C-2 2.34 -2 1.68 -2 1 C-1.34 0.67 -0.68 0.34 0 0 Z " fill="#7C522B" transform="translate(57,9)"/>
<path d="M0 0 C2.31 0 4.62 0 7 0 C7 0.99 7 1.98 7 3 C7.66 3 8.32 3 9 3 C8.67 4.32 8.34 5.64 8 7 C5.36 5.68 2.72 4.36 0 3 C0 2.01 0 1.02 0 0 Z " fill="#C99049" transform="translate(48,13)"/>
<path d="M0 0 C2.31 0 4.62 0 7 0 C7 1.65 7 3.3 7 5 C4.03 5 1.06 5 -2 5 C-2.33 4.34 -2.66 3.68 -3 3 C-2.34 3 -1.68 3 -1 3 C-0.67 2.01 -0.34 1.02 0 0 Z " fill="#945113" transform="translate(57,16)"/>
<path d="M0 0 C0.33 0.66 0.66 1.32 1 2 C2.65 2 4.3 2 6 2 C2.52964218 4.31357188 0.09247216 4.48844098 -4 5 C-4.99 5.33 -5.98 5.66 -7 6 C-7.33 5.01 -7.66 4.02 -8 3 C-7.67 2.34 -7.34 1.68 -7 1 C-4.67843403 0.59270772 -2.3431213 0.25561323 0 0 Z " fill="#965B23" transform="translate(48,31)"/>
<path d="M0 0 C2.64 0 5.28 0 8 0 C7 3 7 3 5.1875 4.25 C2.66056586 5.11637742 1.47778006 4.88492145 -1 4 C-0.67 2.68 -0.34 1.36 0 0 Z " fill="#D4AA70" transform="translate(86,13)"/>
<path d="M0 0 C2.60623142 0.35219343 4.60789115 0.76473469 6.875 2.125 C8.67626472 5.12710787 7.68453372 7.70179208 7 11 C5.02 11 3.04 11 1 11 C1 10.67 1 10.34 1 10 C2.65 10 4.3 10 6 10 C6 7.69 6 5.38 6 3 C4.02 3.33 2.04 3.66 0 4 C0 2.68 0 1.36 0 0 Z " fill="#BC8848" transform="translate(79,24)"/>
<path d="M0 0 C0.639375 0.144375 1.27875 0.28875 1.9375 0.4375 C5.93844788 1.17236798 9.95504896 1.58581111 14 2 C14 2.99 14 3.98 14 5 C13.67 4.34 13.34 3.68 13 3 C10.03 3 7.06 3 4 3 C4 3.66 4 4.32 4 5 C3.34 5 2.68 5 2 5 C2 4.34 2 3.68 2 3 C1.01 2.67 0.02 2.34 -1 2 C-0.67 1.34 -0.34 0.68 0 0 Z " fill="#6E4423" transform="translate(81,10)"/>
<path d="M0 0 C0.12375 0.61875 0.2475 1.2375 0.375 1.875 C0.87197356 4.19120832 0.87197356 4.19120832 3 6 C1.35 6.66 -0.3 7.32 -2 8 C-2.33 7.01 -2.66 6.02 -3 5 C-4.32 5 -5.64 5 -7 5 C-7 4.34 -7 3.68 -7 3 C-4.69 3 -2.38 3 0 3 C0 2.01 0 1.02 0 0 Z " fill="#B17232" transform="translate(85,13)"/>
<path d="M0 0 C5.21979128 -0.1799928 9.07262981 0.02905192 14 2 C14 2.33 14 2.66 14 3 C11.03 2.67 8.06 2.34 5 2 C5 2.66 5 3.32 5 4 C2.525 3.01 2.525 3.01 0 2 C0 1.34 0 0.68 0 0 Z " fill="#BC7E37" transform="translate(83,22)"/>
<path d="M0 0 C0.53625 0.226875 1.0725 0.45375 1.625 0.6875 C0 2.6875 0 2.6875 -2.375 4.6875 C-5.625 4.9375 -5.625 4.9375 -8.375 4.6875 C-8.375 4.0275 -8.375 3.3675 -8.375 2.6875 C-2.95961538 -0.38942308 -2.95961538 -0.38942308 0 0 Z " fill="#662C0E" transform="translate(49.375,34.3125)"/>
<path d="M0 0 C0.33 0.66 0.66 1.32 1 2 C2.65 2 4.3 2 6 2 C5.67 3.32 5.34 4.64 5 6 C4.01 6 3.02 6 2 6 C2 5.34 2 4.68 2 4 C0.68 4 -0.64 4 -2 4 C-1.34 2.68 -0.68 1.36 0 0 Z " fill="#DEA356" transform="translate(62,36)"/>
<path d="M0 0 C2.1519437 3.22791555 2.20086443 4.28400809 2 8 C0.35 7.67 -1.3 7.34 -3 7 C-3 3 -3 3 -1.5 1.25 C-1.005 0.8375 -0.51 0.425 0 0 Z " fill="#64310F" transform="translate(103,30)"/>
<path d="M0 0 C0 0.99 0 1.98 0 3 C-3.67410785 4.17571451 -7.16929183 4.07366746 -11 4 C-3.77464789 -1.88732394 -3.77464789 -1.88732394 0 0 Z " fill="#DDC494" transform="translate(74,32)"/>
<path d="M0 0 C-1.32 0 -2.64 0 -4 0 C-4 0.66 -4 1.32 -4 2 C-5.98 2 -7.96 2 -10 2 C-9.67 1.01 -9.34 0.02 -9 -1 C-5.22102349 -2.0497157 -3.35080929 -2.10976881 0 0 Z " fill="#BE7320" transform="translate(70,48)"/>
<path d="M0 0 C2.125 0.9375 2.125 0.9375 4 2 C4 2.66 4 3.32 4 4 C-0.75 5.125 -0.75 5.125 -3 4 C-2.67 3.01 -2.34 2.02 -2 1 C-1.34 0.67 -0.68 0.34 0 0 Z " fill="#8B5B30" transform="translate(70,5)"/>
<path d="M0 0 C0.66 0.33 1.32 0.66 2 1 C1.67 1.66 1.34 2.32 1 3 C1.66 3.33 2.32 3.66 3 4 C-3.4 4.36923077 -3.4 4.36923077 -6.4375 2.5 C-6.953125 2.005 -7.46875 1.51 -8 1 C-5.36 1.33 -2.72 1.66 0 2 C0 1.34 0 0.68 0 0 Z " fill="#6B2E0C" transform="translate(62,42)"/>
<path d="M0 0 C0.33 0.99 0.66 1.98 1 3 C-0.32 3 -1.64 3 -3 3 C-3 4.32 -3 5.64 -3 7 C-3.99 7 -4.98 7 -6 7 C-6 5.35 -6 3.7 -6 2 C-3.50907189 0.75453595 -2.58919267 1.2232422 0 2 C0 1.34 0 0.68 0 0 Z " fill="#C27110" transform="translate(102,29)"/>
<path d="M0 0 C2.64 0 5.28 0 8 0 C8 0.66 8 1.32 8 2 C6.02 2.66 4.04 3.32 2 4 C2 3.34 2 2.68 2 2 C1.34 2 0.68 2 0 2 C0 1.34 0 0.68 0 0 Z " fill="#7E3F0F" transform="translate(50,26)"/>
<path d="M0 0 C0.33 0.66 0.66 1.32 1 2 C3.02463255 2.65213292 3.02463255 2.65213292 5 3 C1.0186217 4.3271261 -2.85045227 4.06915913 -7 4 C-7.33 4.66 -7.66 5.32 -8 6 C-8 5.01 -8 4.02 -8 3 C-5.69 3 -3.38 3 -1 3 C-0.67 2.01 -0.34 1.02 0 0 Z " fill="#97510D" transform="translate(48,36)"/>
<path d="M0 0 C0 0.66 0 1.32 0 2 C-4.455 2.495 -4.455 2.495 -9 3 C-9 2.34 -9 1.68 -9 1 C-5.92677456 0.08941469 -3.19902639 -0.08886184 0 0 Z " fill="#E1C591" transform="translate(61,33)"/>
<path d="M0 0 C0.66 0 1.32 0 2 0 C2 0.66 2 1.32 2 2 C2.99 2 3.98 2 5 2 C5 2.66 5 3.32 5 4 C2.36 4.66 -0.28 5.32 -3 6 C-3 5.34 -3 4.68 -3 4 C-2.34 3.67 -1.68 3.34 -1 3 C-0.67 2.01 -0.34 1.02 0 0 Z " fill="#905725" transform="translate(71,27)"/>
<path d="M0 0 C1.32 0.66 2.64 1.32 4 2 C4 2.99 4 3.98 4 5 C1.5625 4.625 1.5625 4.625 -1 4 C-1.33 3.34 -1.66 2.68 -2 2 C-1.34 2 -0.68 2 0 2 C0 1.34 0 0.68 0 0 Z " fill="#E0B97D" transform="translate(98,26)"/>
<path d="M0 0 C-6.75 3 -6.75 3 -9 3 C-8.67 2.01 -8.34 1.02 -8 0 C-5.04215769 -1.22393475 -3.00272755 -0.96516243 0 0 Z " fill="#805028" transform="translate(97,46)"/>
<path d="M0 0 C0 0.66 0 1.32 0 2 C-0.66 2 -1.32 2 -2 2 C-2 2.66 -2 3.32 -2 4 C-3.32 4.33 -4.64 4.66 -6 5 C-6 3.68 -6 2.36 -6 1 C-3.92446352 0.4465236 -2.15634036 0 0 0 Z " fill="#916130" transform="translate(68,10)"/>
<path d="M0 0 C0 0.33 0 0.66 0 1 C-6.0546875 1.1953125 -6.0546875 1.1953125 -8 1 C-8.66 0.34 -9.32 -0.32 -10 -1 C-6.18510326 -2.46726798 -3.70988378 -1.43336419 0 0 Z " fill="#783507" transform="translate(57,47)"/>
<path d="M0 0 C1.65 1.32 3.3 2.64 5 4 C4.01 4 3.02 4 2 4 C2 4.66 2 5.32 2 6 C2.66 6.33 3.32 6.66 4 7 C2.0625 6.6875 2.0625 6.6875 0 6 C-1 3 -1 3 0 0 Z " fill="#783C0E" transform="translate(81,18)"/>
<path d="M0 0 C0.99 0 1.98 0 3 0 C3 1.98 3 3.96 3 6 C2.01 6 1.02 6 0 6 C0 4.02 0 2.04 0 0 Z " fill="#F2E4B4" transform="translate(68,11)"/>
<path d="M0 0 C2.97 0.495 2.97 0.495 6 1 C5.67 1.66 5.34 2.32 5 3 C3.02 3 1.04 3 -1 3 C-0.67 2.01 -0.34 1.02 0 0 Z " fill="#B26D18" transform="translate(45,47)"/>
<path d="M0 0 C0.66 0.33 1.32 0.66 2 1 C0.68 2.32 -0.64 3.64 -2 5 C-4.475 4.01 -4.475 4.01 -7 3 C-4.66785852 1.79371992 -2.50357861 0.8345262 0 0 Z " fill="#AE6418" transform="translate(65,29)"/>
</svg>
