<?xml version="1.0" encoding="UTF-8"?>
<svg version="1.1" xmlns="http://www.w3.org/2000/svg" width="143" height="58">
<path d="M0 0 C1.32 0 2.64 0 4 0 C4 0.66 4 1.32 4 2 C3.34 2 2.68 2 2 2 C2 2.66 2 3.32 2 4 C1.01 4 0.02 4 -1 4 C-1 4.66 -1 5.32 -1 6 C2.63 6 6.26 6 10 6 C10 5.34 10 4.68 10 4 C8.35 4 6.7 4 5 4 C7.92200367 0.79971026 9.97401573 0.05699913 14.375 -0.1875 C17.7875905 -0.0109867 19.95833833 0.52525495 23 2 C23 2.66 23 3.32 23 4 C21.68 4.33 20.36 4.66 19 5 C21.70879335 6.35439668 24.00933268 6.06501451 27 6 C27.22609337 3.87635519 27.22609337 3.87635519 25.5 2.375 C25.005 1.92125 24.51 1.4675 24 1 C25.32 0.67 26.64 0.34 28 0 C28.495 0.99 28.495 0.99 29 2 C31.35599235 2.46751788 31.35599235 2.46751788 34.0625 2.625 C35.44115234 2.73714844 35.44115234 2.73714844 36.84765625 2.8515625 C37.55792969 2.90054687 38.26820312 2.94953125 39 3 C36.28498821 5.84507223 33.29375803 7.85189693 30 10 C29.67 10.33 29.34 10.66 29 11 C29.88042969 11.24234375 30.76085937 11.4846875 31.66796875 11.734375 C32.82941406 12.06953125 33.99085937 12.4046875 35.1875 12.75 C36.33605469 13.07484375 37.48460937 13.3996875 38.66796875 13.734375 C42.682983 15.25942144 46.02866237 17.05732474 48 21 C48.41318738 24.05758661 48.47507051 26.94753549 48 30 C45.9375 32.3125 45.9375 32.3125 43 34 C41.989375 34.70125 40.97875 35.4025 39.9375 36.125 C29.7394837 41.66372922 16.49294852 40.24308884 5.25 40.125 C3.57031787 40.11494397 1.89062988 40.10582278 0.2109375 40.09765625 C-3.85952282 40.07586468 -7.92969468 40.04148163 -12 40 C-11.67 39.01 -11.34 38.02 -11 37 C-10.01 36.505 -10.01 36.505 -9 36 C-10.4540625 35.38125 -10.4540625 35.38125 -11.9375 34.75 C-15 33 -15 33 -16 30.9375 C-16 29 -16 29 -14 27 C-14.32041397 24.39719432 -14.32041397 24.39719432 -15 22 C-9.375 19 -9.375 19 -6 19 C-6.10613836 16.54775306 -6.10613836 16.54775306 -7 14 C-9.47636012 12.62533375 -9.47636012 12.62533375 -12 12 C-12 11.67 -12 11.34 -12 11 C-8.7 10.67 -5.4 10.34 -2 10 C-3.32 9.05125 -4.64 8.1025 -6 7.125 C-8.25 5.5078125 -8.25 5.5078125 -10 4 C-10 3.34 -10 2.68 -10 2 C-7.03 2 -4.06 2 -1 2 C-0.67 1.34 -0.34 0.68 0 0 Z M7 10 C7 10.33 7 10.66 7 11 C9.97 11 12.94 11 16 11 C16 10.67 16 10.34 16 10 C13.03 10 10.06 10 7 10 Z M3 12 C3 13.65 3 15.3 3 17 C4.41782145 16.93940934 5.83444466 16.85045877 7.25 16.75 C8.03890625 16.70359375 8.8278125 16.6571875 9.640625 16.609375 C12.62567392 16.0514094 12.62567392 16.0514094 16 12 C11.71 12 7.42 12 3 12 Z M20 13 C20.33 14.65 20.66 16.3 21 18 C21.66 17.67 22.32 17.34 23 17 C23 16.01 23 15.02 23 14 C23.66 13.67 24.32 13.34 25 13 C23.35 13 21.7 13 20 13 Z M26 14 C26.495 14.391875 26.99 14.78375 27.5 15.1875 C29.47471665 17.57361595 29 18.96798426 29 22 C30.39957197 24.28484306 30.39957197 24.28484306 32 26 C31.01 26 30.02 26 29 26 C28.3503125 26.7115625 28.3503125 26.7115625 27.6875 27.4375 C23.7208739 31.11030194 17.09201176 30.08779331 12 30 C12.79117904 31.99983534 12.79117904 31.99983534 14 34 C17.44665742 35.14888581 20.24351905 35.2039347 23.875 35.25 C25.08929688 35.27578125 26.30359375 35.3015625 27.5546875 35.328125 C31.24889246 34.97629596 33.07205609 34.22801571 36 32 C37.72776275 29.0942172 38.01586785 27.38082851 37.875 24 C36.63774595 19.75798613 34.67660094 17.06692787 30.9375 14.6875 C28.87142955 13.83279508 28.87142955 13.83279508 26 14 Z M2 28 C3 30 3 30 3 30 Z M-5 29 C-6.00217064 32.58327753 -6.00217064 32.58327753 -5 36 C-3.68 35.67 -2.36 35.34 -1 35 C-1.66 34.67 -2.32 34.34 -3 34 C-3.625 31.4375 -3.625 31.4375 -4 29 C-4.33 29 -4.66 29 -5 29 Z M10 36 C14 37 14 37 14 37 Z " fill="#733F16" transform="translate(56,10)"/>
<path d="M0 0 C1.32 0 2.64 0 4 0 C4 0.66 4 1.32 4 2 C3.34 2 2.68 2 2 2 C2 2.66 2 3.32 2 4 C1.01 4 0.02 4 -1 4 C-1 4.66 -1 5.32 -1 6 C2.63 6 6.26 6 10 6 C10 5.34 10 4.68 10 4 C8.35 4 6.7 4 5 4 C7.92200367 0.79971026 9.97401573 0.05699913 14.375 -0.1875 C17.7875905 -0.0109867 19.95833833 0.52525495 23 2 C23 2.66 23 3.32 23 4 C21.35 4 19.7 4 18 4 C18.495 6.97 18.495 6.97 19 10 C17.02 10.33 15.04 10.66 13 11 C13 11.33 13 11.66 13 12 C9.7 12 6.4 12 3 12 C3 13.65 3 15.3 3 17 C7.62 16.01 12.24 15.02 17 14 C16.67 14.99 16.34 15.98 16 17 C14.66666667 17.33333333 13.33333333 17.66666667 12 18 C11.67 18.99 11.34 19.98 11 21 C10.34 21 9.68 21 9 21 C9 21.66 9 22.32 9 23 C6.35261084 24.4606285 5.10551666 25 2 25 C2 26.98 2 28.96 2 31 C1.01 31 0.02 31 -1 31 C-0.67 29.68 -0.34 28.36 0 27 C-1.65 27 -3.3 27 -5 27 C-5 26.34 -5 25.68 -5 25 C-4.01 24.34 -3.02 23.68 -2 23 C-8.435 24.485 -8.435 24.485 -15 26 C-14.67 24.35 -14.34 22.7 -14 21 C-11.11090151 19.40339294 -9.30941204 19 -6 19 C-6.10613836 16.54775306 -6.10613836 16.54775306 -7 14 C-9.47636012 12.62533375 -9.47636012 12.62533375 -12 12 C-12 11.67 -12 11.34 -12 11 C-8.7 10.67 -5.4 10.34 -2 10 C-3.32 9.05125 -4.64 8.1025 -6 7.125 C-8.25 5.5078125 -8.25 5.5078125 -10 4 C-10 3.34 -10 2.68 -10 2 C-7.03 2 -4.06 2 -1 2 C-0.67 1.34 -0.34 0.68 0 0 Z " fill="#8F5218" transform="translate(56,10)"/>
<path d="M0 0 C-1.98 0.99 -1.98 0.99 -4 2 C-4 2.66 -4 3.32 -4 4 C-2.02 3.67 -0.04 3.34 2 3 C1.34 4.65 0.68 6.3 0 8 C0.57234375 7.81566406 1.1446875 7.63132812 1.734375 7.44140625 C5.44557179 6.71836274 8.39761105 7.97932313 12 9 C12.33 8.34 12.66 7.68 13 7 C13.99 8.485 13.99 8.485 15 10 C18.10811287 10.80541207 18.10811287 10.80541207 21.625 11.1875 C22.81351563 11.34605469 24.00203125 11.50460938 25.2265625 11.66796875 C26.14179687 11.77753906 27.05703125 11.88710938 28 12 C28.495 13.485 28.495 13.485 29 15 C20.585 15.495 20.585 15.495 12 16 C12 16.33 12 16.66 12 17 C4.41 17 -3.18 17 -11 17 C-10.67 16.01 -10.34 15.02 -10 14 C-9.34 13.67 -8.68 13.34 -8 13 C-8.969375 12.5875 -9.93875 12.175 -10.9375 11.75 C-14 10 -14 10 -15.1875 8.125 C-15 6 -15 6 -13 3.375 C-8.86577018 0.10206806 -5.15907413 -1.71969138 0 0 Z M-4 6 C-5.00217064 9.58327753 -5.00217064 9.58327753 -4 13 C-2.68 12.67 -1.36 12.34 0 12 C-0.66 11.67 -1.32 11.34 -2 11 C-2.625 8.4375 -2.625 8.4375 -3 6 C-3.33 6 -3.66 6 -4 6 Z M11 13 C15 14 15 14 15 14 Z " fill="#8E4D13" transform="translate(55,33)"/>
<path d="M0 0 C6.83475774 -0.56956314 11.74285597 1.25178473 17 5.6875 C18.6172719 9.42744128 18.77465327 13.00869124 18 17 C15.9375 19.3125 15.9375 19.3125 13 21 C11.989375 21.70125 10.97875 22.4025 9.9375 23.125 C1.60127056 27.69822306 -9.74275265 27.87429558 -19 27 C-20.32 26.34 -21.64 25.68 -23 25 C-19.04 24.67 -15.08 24.34 -11 24 C-11 23.67 -11 23.34 -11 23 C-10.18015625 22.87882812 -9.3603125 22.75765625 -8.515625 22.6328125 C-7.43796875 22.46523438 -6.3603125 22.29765625 -5.25 22.125 C-3.64898437 21.88136719 -3.64898437 21.88136719 -2.015625 21.6328125 C0.706653 21.06155727 2.66307559 20.47879282 5 19 C6.66771432 16.14106116 7.00652591 14.31324344 6.9375 11 C5.76687132 7.25398824 3.84815781 5.63454598 1 3 C0.67 2.01 0.34 1.02 0 0 Z " fill="#A4560B" transform="translate(86,23)"/>
<path d="M0 0 C2.625 0.375 2.625 0.375 5 1 C4.95875 1.7425 4.9175 2.485 4.875 3.25 C5.00398134 6.08758952 5.57051222 7.58773938 7 10 C6.01 10 5.02 10 4 10 C3.67 10.99 3.34 11.98 3 13 C-0.4733869 15.56369033 -3.60054206 15.03994579 -7.75 14.625 C-8.92046875 14.51414062 -10.0909375 14.40328125 -11.296875 14.2890625 C-12.18890625 14.19367187 -13.0809375 14.09828125 -14 14 C-14 14.66 -14 15.32 -14 16 C-14.99 16 -15.98 16 -17 16 C-17 15.34 -17 14.68 -17 14 C-18.32 14 -19.64 14 -21 14 C-19.62900204 10.62449024 -18.48221768 9.38499281 -15.15625 7.9296875 C-14.40472656 7.59066406 -13.65320313 7.25164063 -12.87890625 6.90234375 C-12.09386719 6.56332031 -11.30882813 6.22429688 -10.5 5.875 C-8.94623517 5.18869008 -7.39407088 4.49874196 -5.84375 3.8046875 C-5.15474609 3.50546387 -4.46574219 3.20624023 -3.75585938 2.89794922 C-1.81271397 2.01778143 -1.81271397 2.01778143 0 0 Z " fill="#E4A650" transform="translate(81,26)"/>
<path d="M0 0 C0 0.66 0 1.32 0 2 C-1.65 2 -3.3 2 -5 2 C-4.67 3.98 -4.34 5.96 -4 8 C-7.96 8 -11.92 8 -16 8 C-15.67 6.68 -15.34 5.36 -15 4 C-14.34 4 -13.68 4 -13 4 C-13 3.34 -13 2.68 -13 2 C-14.65 2 -16.3 2 -18 2 C-13.0443363 -3.42763167 -6.34917222 -3.07838653 0 0 Z " fill="#E2AC61" transform="translate(79,12)"/>
<path d="M0 0 C0 0.66 0 1.32 0 2 C-10.23017315 8.76844789 -21.88865732 10.14384903 -34 9 C-35.32 8.34 -36.64 7.68 -38 7 C-32.06 6.505 -32.06 6.505 -26 6 C-26 5.67 -26 5.34 -26 5 C-25.2265625 4.89042969 -24.453125 4.78085937 -23.65625 4.66796875 C-16.49367303 3.58758024 -16.49367303 3.58758024 -9.625 1.375 C-6.09314625 0.03533134 -3.7289333 -0.27967 0 0 Z " fill="#BC8E54" transform="translate(101,41)"/>
<path d="M0 0 C1.67542976 0.28604898 3.34385343 0.61781233 5 1 C5 2.32 5 3.64 5 5 C4.34 5 3.68 5 3 5 C3 5.66 3 6.32 3 7 C1.98292969 7.18175781 1.98292969 7.18175781 0.9453125 7.3671875 C-5.38507309 8.50700762 -11.69752644 9.71489693 -18 11 C-15.2759152 7.71091983 -11.64790313 6.17379826 -7.875 4.375 C-3.65598391 2.5908224 -3.65598391 2.5908224 0 0 Z " fill="#ECD6A4" transform="translate(81,26)"/>
<path d="M0 0 C2.42522207 2.42522207 2.29629254 3.1720679 2.3125 6.5 C2.33763672 7.69109375 2.33763672 7.69109375 2.36328125 8.90625 C2.24339844 9.5971875 2.12351562 10.288125 2 11 C-1.49808262 13.33205508 -2.90894125 13.08349099 -7 13 C-9.26566343 13.43941523 -9.26566343 13.43941523 -11 14 C-10.34 12.02 -9.68 10.04 -9 8 C-7.02 8 -5.04 8 -3 8 C-3 6.68 -3 5.36 -3 4 C-2.34 3.67 -1.68 3.34 -1 3 C-0.67 2.01 -0.34 1.02 0 0 Z " fill="#87450C" transform="translate(102,29)"/>
<path d="M0 0 C4.455 0.99 4.455 0.99 9 2 C9.33 1.34 9.66 0.68 10 0 C10.66 0.99 11.32 1.98 12 3 C12.99 3.66 13.98 4.32 15 5 C9.46666988 6.95972108 5.7744588 7.23062237 0 6 C-2.5 4.4375 -2.5 4.4375 -4 3 C-2.68 3 -1.36 3 0 3 C0 2.01 0 1.02 0 0 Z " fill="#733A13" transform="translate(58,40)"/>
<path d="M0 0 C0.99 0.33 1.98 0.66 3 1 C3 1.33 3 1.66 3 2 C6.3 2.33 9.6 2.66 13 3 C10.12371715 5.87628285 7.49050549 7.93419063 4 10 C2.68 10 1.36 10 0 10 C0 9.34 0 8.68 0 8 C-1.32 7.67 -2.64 7.34 -4 7 C-2.02 6.34 -0.04 5.68 2 5 C0.68 3.68 -0.64 2.36 -2 1 C-1.34 0.67 -0.68 0.34 0 0 Z " fill="#9A6631" transform="translate(82,10)"/>
<path d="M0 0 C-0.99 0.33 -1.98 0.66 -3 1 C-3 1.66 -3 2.32 -3 3 C-6.12352227 4.00465729 -9.24904853 5.00292927 -12.375 6 C-13.26445313 6.28617188 -14.15390625 6.57234375 -15.0703125 6.8671875 C-16.34648438 7.27324219 -16.34648438 7.27324219 -17.6484375 7.6875 C-18.82672119 8.06455078 -18.82672119 8.06455078 -20.02880859 8.44921875 C-22 9 -22 9 -24 9 C-24 7.68 -24 6.36 -24 5 C-23.31292969 4.87882812 -22.62585937 4.75765625 -21.91796875 4.6328125 C-21.01691406 4.46523438 -20.11585937 4.29765625 -19.1875 4.125 C-18.29417969 3.96257813 -17.40085937 3.80015625 -16.48046875 3.6328125 C-13.77272154 3.08811551 -13.77272154 3.08811551 -11 1 C-7.28759166 0.19295471 -3.79349787 -0.11157347 0 0 Z " fill="#A96926" transform="translate(65,27)"/>
<path d="M0 0 C0.33 0 0.66 0 1 0 C1.33 1.98 1.66 3.96 2 6 C1.2575 6.12375 0.515 6.2475 -0.25 6.375 C-2.93063477 6.85730426 -2.93063477 6.85730426 -4.875 8 C-7.24409729 9.11486931 -9.15096669 9.39567353 -11.75 9.625 C-12.54921875 9.69976562 -13.3484375 9.77453125 -14.171875 9.8515625 C-15.07679687 9.92503906 -15.07679687 9.92503906 -16 10 C-13.4345406 7.4345406 -11.52313332 7.45953913 -8 7 C-8 5.35 -8 3.7 -8 2 C-5.36 2.33 -2.72 2.66 0 3 C0 2.01 0 1.02 0 0 Z " fill="#945518" transform="translate(58,22)"/>
<path d="M0 0 C5.22174778 -0.31330487 8.57691041 0.11984864 13 3 C14.375 5.1875 14.375 5.1875 15 7 C11.67002721 6.46290761 8.47213142 5.60654243 5.25 4.625 C4.47140625 4.39039063 3.6928125 4.15578125 2.890625 3.9140625 C2.26671875 3.61242187 1.6428125 3.31078125 1 3 C0.67 2.01 0.34 1.02 0 0 Z " fill="#CD9A57" transform="translate(86,23)"/>
<path d="M0 0 C2.1640625 0.0234375 2.1640625 0.0234375 4.625 0.375 C5.85089844 0.54128906 5.85089844 0.54128906 7.1015625 0.7109375 C7.72804688 0.80632813 8.35453125 0.90171875 9 1 C9.33 1.99 9.66 2.98 10 4 C11.65 4 13.3 4 15 4 C15 4.33 15 4.66 15 5 C9.06 5 3.12 5 -3 5 C-2 2 -2 2 0 0 Z " fill="#683510" transform="translate(47,45)"/>
<path d="M0 0 C1.32 0 2.64 0 4 0 C4 0.66 4 1.32 4 2 C3.34 2 2.68 2 2 2 C2 2.66 2 3.32 2 4 C1.01 4 0.02 4 -1 4 C-0.67 5.65 -0.34 7.3 0 9 C-3.61941735 7.49760034 -6.7321794 6.17854707 -10 4 C-10 3.34 -10 2.68 -10 2 C-7.03 2 -4.06 2 -1 2 C-0.67 1.34 -0.34 0.68 0 0 Z " fill="#7E552F" transform="translate(56,10)"/>
<path d="M0 0 C0.99 0.66 1.98 1.32 3 2 C3 2.66 3 3.32 3 4 C2.01 4 1.02 4 0 4 C-0.33 4.99 -0.66 5.98 -1 7 C-4.27927088 9.33159168 -6.85560259 9.08861874 -10.75 8.625 C-12.22726563 8.45871094 -12.22726563 8.45871094 -13.734375 8.2890625 C-14.48203125 8.19367187 -15.2296875 8.09828125 -16 8 C-13.60549427 5.60549427 -12.40903764 5.54571545 -9.125 5 C-5.71716147 4.43033147 -3.02513059 3.68844498 0 2 C0 1.34 0 0.68 0 0 Z " fill="#7F4512" transform="translate(85,32)"/>
<path d="M0 0 C-2.41003178 2.41003178 -4.96400731 3.48200366 -8 5 C-8.66 5.66 -9.32 6.32 -10 7 C-11.32 7 -12.64 7 -14 7 C-14.33 7.66 -14.66 8.32 -15 9 C-14.45282991 5.16980938 -13.01704309 3.38187612 -10 1 C-3.825 -1.275 -3.825 -1.275 0 0 Z " fill="#642E0E" transform="translate(55,33)"/>
<path d="M0 0 C2.64 0 5.28 0 8 0 C8.66 1.98 9.32 3.96 10 6 C5.545 5.01 5.545 5.01 1 4 C0.67 2.68 0.34 1.36 0 0 Z " fill="#D4A059" transform="translate(41,40)"/>
<path d="M0 0 C4.95 0 9.9 0 15 0 C14.67 1.32 14.34 2.64 14 4 C9.02906176 3.58846263 4.55491614 3.20399168 0 1 C0 0.67 0 0.34 0 0 Z " fill="#E0AF6B" transform="translate(44,21)"/>
<path d="M0 0 C0 0.66 0 1.32 0 2 C-1.32 2 -2.64 2 -4 2 C-4 1.34 -4 0.68 -4 0 C-6.31 -0.33 -8.62 -0.66 -11 -1 C-11 0.65 -11 2.3 -11 4 C-11.66 4 -12.32 4 -13 4 C-13 3.34 -13 2.68 -13 2 C-14.65 2 -16.3 2 -18 2 C-13.0443363 -3.42763167 -6.34917222 -3.07838653 0 0 Z " fill="#996B39" transform="translate(79,12)"/>
<path d="M0 0 C-0.33 0.66 -0.66 1.32 -1 2 C-1.99 2 -2.98 2 -4 2 C-4 3.98 -4 5.96 -4 8 C-4.99 8 -5.98 8 -7 8 C-6.67 6.68 -6.34 5.36 -6 4 C-7.65 4 -9.3 4 -11 4 C-11 3.34 -11 2.68 -11 2 C-7.17010894 0.19769832 -4.21878192 -0.19622241 0 0 Z " fill="#E2BE85" transform="translate(62,33)"/>
<path d="M0 0 C1.32 0 2.64 0 4 0 C4 2.31 4 4.62 4 7 C2.68 7.33 1.36 7.66 0 8 C-0.79953138 4.71303767 -1.09658936 3.28976808 0 0 Z " fill="#F2E0AE" transform="translate(68,11)"/>
<path d="M0 0 C4.29 0 8.58 0 13 0 C13.33 0.99 13.66 1.98 14 3 C9.71 3 5.42 3 1 3 C0.67 2.01 0.34 1.02 0 0 Z " fill="#8C521B" transform="translate(70,45)"/>
<path d="M0 0 C-0.99 0.33 -1.98 0.66 -3 1 C-3 1.66 -3 2.32 -3 3 C-9.28571429 5.42857143 -9.28571429 5.42857143 -13 4 C-11 1 -11 1 -8.1875 0.3125 C-5.42559682 0.04172518 -2.77147648 -0.08151401 0 0 Z " fill="#CC9553" transform="translate(65,27)"/>
<path d="M0 0 C0.99 0.33 1.98 0.66 3 1 C3.33 0.67 3.66 0.34 4 0 C5.67542976 0.28604898 7.34385343 0.61781233 9 1 C6.31158141 3.25245881 4.35358125 4.88213958 1 6 C-1.1875 5.5625 -1.1875 5.5625 -3 5 C-3 3 -3 3 -1.5 1.375 C-1.005 0.92125 -0.51 0.4675 0 0 Z " fill="#B17B3A" transform="translate(75,24)"/>
<path d="M0 0 C0.66 0.33 1.32 0.66 2 1 C1.67 2.65 1.34 4.3 1 6 C0.34 6 -0.32 6 -1 6 C-1 6.99 -1 7.98 -1 9 C-1.99 9 -2.98 9 -4 9 C-4 7.35 -4 5.7 -4 4 C-2.68 3.34 -1.36 2.68 0 2 C0 1.34 0 0.68 0 0 Z " fill="#C5791C" transform="translate(100,27)"/>
<path d="M0 0 C0 0.66 0 1.32 0 2 C-3.63423209 4.32590854 -6.77088331 4.16265833 -11 4 C-10.01 3.67 -9.02 3.34 -8 3 C-8 2.34 -8 1.68 -8 1 C-5.29120665 -0.35439668 -2.99066732 -0.06501451 0 0 Z " fill="#DDAC68" transform="translate(101,41)"/>
<path d="M0 0 C0.33 0.66 0.66 1.32 1 2 C2.98 1.67 4.96 1.34 7 1 C6.34 2.65 5.68 4.3 5 6 C5.99 6 6.98 6 8 6 C8 6.66 8 7.32 8 8 C6.35 8 4.7 8 3 8 C3.33 6.35 3.66 4.7 4 3 C2.35 3 0.7 3 -1 3 C-0.67 2.01 -0.34 1.02 0 0 Z " fill="#AB6A21" transform="translate(50,35)"/>
<path d="M0 0 C3.63 0 7.26 0 11 0 C9.02 0.99 9.02 0.99 7 2 C7 2.66 7 3.32 7 4 C6.01 4 5.02 4 4 4 C4 3.34 4 2.68 4 2 C2.68 2 1.36 2 0 2 C0 1.34 0 0.68 0 0 Z " fill="#DB9941" transform="translate(60,38)"/>
<path d="M0 0 C3.63 0 7.26 0 11 0 C8.50494038 2.49505962 7.32671112 2.35948376 3.875 2.625 C2.96492188 2.69976562 2.05484375 2.77453125 1.1171875 2.8515625 C0.06917969 2.92503906 0.06917969 2.92503906 -1 3 C-0.67 2.01 -0.34 1.02 0 0 Z " fill="#ECB66A" transform="translate(62,36)"/>
<path d="M0 0 C2.875 -0.125 2.875 -0.125 6 0 C6.66 0.66 7.32 1.32 8 2 C3.545 2.495 3.545 2.495 -1 3 C-0.67 2.01 -0.34 1.02 0 0 Z " fill="#935615" transform="translate(45,47)"/>
<path d="M0 0 C4.3177458 0.50797009 8.03302114 1.19682779 12 3 C8.69564916 4.12377697 6.9493138 3.89554742 3.75 2.5625 C3.04359375 2.27503906 2.3371875 1.98757812 1.609375 1.69140625 C1.07828125 1.46324219 0.5471875 1.23507813 0 1 C0 0.67 0 0.34 0 0 Z " fill="#672D0C" transform="translate(54,43)"/>
<path d="M0 0 C1.8871875 0.0309375 1.8871875 0.0309375 3.8125 0.0625 C0.85071227 1.73360042 -1.55821192 2.38932752 -4.9375 2.6875 C-5.73671875 2.76226563 -6.5359375 2.83703125 -7.359375 2.9140625 C-7.96265625 2.96304687 -8.5659375 3.01203125 -9.1875 3.0625 C-6.30623588 0.18123588 -3.90053134 -0.06394314 0 0 Z " fill="#642C0F" transform="translate(51.1875,28.9375)"/>
<path d="M0 0 C0.99 0 1.98 0 3 0 C3.33 0.66 3.66 1.32 4 2 C4.99 2.66 5.98 3.32 7 4 C4.36 4 1.72 4 -1 4 C-0.67 2.68 -0.34 1.36 0 0 Z " fill="#E2B675" transform="translate(64,16)"/>
<path d="M0 0 C0 0.99 0 1.98 0 3 C-0.639375 3.103125 -1.27875 3.20625 -1.9375 3.3125 C-2.618125 3.539375 -3.29875 3.76625 -4 4 C-4.33 4.99 -4.66 5.98 -5 7 C-5.625 5.125 -5.625 5.125 -6 3 C-3.8614515 0.8614515 -2.86724686 0.57344937 0 0 Z " fill="#A96E32" transform="translate(72,24)"/>
<path d="M0 0 C1.98 0 3.96 0 6 0 C6 0.66 6 1.32 6 2 C4.1875 3.0625 4.1875 3.0625 2 4 C1.01 3.67 0.02 3.34 -1 3 C-0.67 2.01 -0.34 1.02 0 0 Z " fill="#DDB67B" transform="translate(86,14)"/>
<path d="M0 0 C0.433125 0.45375 0.86625 0.9075 1.3125 1.375 C3.10798342 3.20024334 3.10798342 3.20024334 6 5 C3.69 5.33 1.38 5.66 -1 6 C-0.67 5.34 -0.34 4.68 0 4 C-0.66 3.34 -1.32 2.68 -2 2 C-1.34 2 -0.68 2 0 2 C0 1.34 0 0.68 0 0 Z " fill="#7D4516" transform="translate(67,40)"/>
<path d="M0 0 C1.98 0 3.96 0 6 0 C4.68 1.65 3.36 3.3 2 5 C3.32 5.33 4.64 5.66 6 6 C4.35 6 2.7 6 1 6 C0.67 4.02 0.34 2.04 0 0 Z " fill="#945A17" transform="translate(58,35)"/>
<path d="M0 0 C2.31 0.66 4.62 1.32 7 2 C5.68 3.65 4.36 5.3 3 7 C2.01 4.69 1.02 2.38 0 0 Z " fill="#72390F" transform="translate(90,27)"/>
<path d="M0 0 C1.65 0 3.3 0 5 0 C5.66 1.32 6.32 2.64 7 4 C4.625 3.6875 4.625 3.6875 2 3 C1.34 2.01 0.68 1.02 0 0 Z " fill="#EBD19E" transform="translate(94,26)"/>
<path d="M0 0 C1.32 0 2.64 0 4 0 C4 0.66 4 1.32 4 2 C4.66 2 5.32 2 6 2 C5.67 2.99 5.34 3.98 5 5 C3.0625 4.1875 3.0625 4.1875 1 3 C0.67 2.01 0.34 1.02 0 0 Z " fill="#D79D51" transform="translate(50,14)"/>
<path d="M0 0 C-0.33 0.66 -0.66 1.32 -1 2 C-2.65 2 -4.3 2 -6 2 C-6.33 1.34 -6.66 0.68 -7 0 C-4.3333581 -1.33332095 -2.83319697 -0.67102033 0 0 Z " fill="#835428" transform="translate(74,7)"/>
</svg>
